HIERARCHY
ROOT Hips
{
	OFFSET 0.000000 0.000000 0.000000
	CHANNELS 6 Xposition Yposition Zposition Zrotation Yrotation Xrotation 
	JOINT LHipJoint
	{
		OFFSET 0.000000 0.000000 0.000000
		CHANNELS 3 Zrotation Yrotation Xrotation
		JOINT LeftUpLeg
		{
			OFFSET 1.363060 -1.794630 0.839290
			CHANNELS 3 Zrotation Yrotation Xrotation
			JOINT LeftLeg
			{
				OFFSET 2.448110 -6.726130 0.000000
				CHANNELS 3 Zrotation Yrotation Xrotation
				JOINT LeftFoot
				{
					OFFSET 2.562200 -7.039590 0.000000
					CHANNELS 3 Zrotation Yrotation Xrotation
					JOINT LeftToeBase
					{
						OFFSET 0.157640 -0.433110 2.322550
						CHANNELS 3 Zrotation Yrotation Xrotation
						End Site
						{
							OFFSET 0.000000 0.000000 0.000000
						}
					}
				}
			}
		}
	}
	JOINT RHipJoint
	{
		OFFSET 0.000000 0.000000 0.000000
		CHANNELS 3 Zrotation Yrotation Xrotation
		JOINT RightUpLeg
		{
			OFFSET -1.305520 -1.794630 0.839290
			CHANNELS 3 Zrotation Yrotation Xrotation
			JOINT RightLeg
			{
				OFFSET -2.542530 -6.985550 0.000000
				CHANNELS 3 Zrotation Yrotation Xrotation
				JOINT RightFoot
				{
					OFFSET -2.568260 -7.056230 0.000000
					CHANNELS 3 Zrotation Yrotation Xrotation
					JOINT RightToeBase
					{
						OFFSET -0.164730 -0.452590 2.363150
						CHANNELS 3 Zrotation Yrotation Xrotation
						End Site
						{
							OFFSET 0.000000 0.000000 0.000000
						}
					}
				}
			}
		}
	}
	JOINT LowerBack
	{
		OFFSET 0.000000 0.000000 0.000000
		CHANNELS 3 Zrotation Yrotation Xrotation
		JOINT Spine
		{
			OFFSET 0.028270 2.035590 -0.193380
			CHANNELS 3 Zrotation Yrotation Xrotation
			JOINT Spine1
			{
				OFFSET 0.056720 2.048850 -0.042750
				CHANNELS 3 Zrotation Yrotation Xrotation
				JOINT Neck
				{
					OFFSET 0.000000 0.000000 0.000000
					CHANNELS 3 Zrotation Yrotation Xrotation
					JOINT Neck1
					{
						OFFSET -0.054170 1.746240 0.172020
						CHANNELS 3 Zrotation Yrotation Xrotation
						JOINT Head
						{
							OFFSET 0.104070 1.761360 -0.123970
							CHANNELS 3 Zrotation Yrotation Xrotation
							End Site
							{
								OFFSET 0.000000 0.000000 0.000000
							}
						}
					}
				}
				JOINT LeftShoulder
				{
					OFFSET 0.000000 0.000000 0.000000
					CHANNELS 3 Zrotation Yrotation Xrotation
					JOINT LeftArm
					{
						OFFSET 3.362410 1.200890 -0.311210
						CHANNELS 3 Zrotation Yrotation Xrotation
						JOINT LeftForeArm
						{
							OFFSET 4.983000 -0.000000 -0.000000
							CHANNELS 3 Zrotation Yrotation Xrotation
							JOINT LeftHand
							{
								OFFSET 3.483560 -0.000000 -0.000000
								CHANNELS 3 Zrotation Yrotation Xrotation
								JOINT LeftFingerBase
								{
									OFFSET 0.000000 0.000000 0.000000
									CHANNELS 3 Zrotation Yrotation Xrotation
									JOINT LeftHandIndex1
									{
										OFFSET 0.715260 -0.000000 -0.000000
										CHANNELS 3 Zrotation Yrotation Xrotation
										End Site
										{
											OFFSET 0.000000 0.000000 0.000000
										}
									}
								}
								JOINT LThumb
								{
									OFFSET 0.000000 0.000000 0.000000
									CHANNELS 3 Zrotation Yrotation Xrotation
									End Site
									{
										OFFSET 0.000000 0.000000 0.000000
									}
								}
							}
						}
					}
				}
				JOINT RightShoulder
				{
					OFFSET 0.000000 0.000000 0.000000
					CHANNELS 3 Zrotation Yrotation Xrotation
					JOINT RightArm
					{
						OFFSET -3.136600 1.374050 -0.404650
						CHANNELS 3 Zrotation Yrotation Xrotation
						JOINT RightForeArm
						{
							OFFSET -5.241900 -0.000000 -0.000000
							CHANNELS 3 Zrotation Yrotation Xrotation
							JOINT RightHand
							{
								OFFSET -3.444170 -0.000000 -0.000000
								CHANNELS 3 Zrotation Yrotation Xrotation
								JOINT RightFingerBase
								{
									OFFSET 0.000000 0.000000 0.000000
									CHANNELS 3 Zrotation Yrotation Xrotation
									JOINT RightHandIndex1
									{
										OFFSET -0.622530 -0.000000 -0.000000
										CHANNELS 3 Zrotation Yrotation Xrotation
										End Site
										{
											OFFSET 0.000000 0.000000 0.000000
										}
									}
								}
								JOINT RThumb
								{
									OFFSET 0.000000 0.000000 0.000000
									CHANNELS 3 Zrotation Yrotation Xrotation
									End Site
									{
										OFFSET 0.000000 0.000000 0.000000
									}
								}
							}
						}
					}
				}
			}
		}
	}
}
MOTION
Frames: 10
Frame Time: 0.008333
46.915673 16.751072 -6.261211 6.846410 11.095813 1.635682 4.360460 1.712172 -0.810598 -14.227171 -5.611162 -5.507838 0.287424 7.533630 22.755193 1.006515 -12.051484 11.337210 0.086900 -1.901400 -5.233300 -7.304191 -1.492175 -0.602830 28.626141 17.757464 -18.024544 -10.607612 -18.564860 61.514061 -0.669277 0.109095 -14.666195 -1.157000 -6.829200 19.210300 1.917020 5.975656 3.408960 -0.356615 8.000000 -2.064739 -3.846714 3.956814 1.575384 2.033215 7.181631 -10.708003 5.460893 8.642611 9.736535 0.680100 4.722400 6.222600 -6.924719 -6.403399 0.097659 -81.983289 31.980494 31.785247 8.790476 -18.038027 -2.014786 -0.663108 -1.434502 -12.022882 8.323721 16.901747 2.908300 -7.125000 0.000000 0.000000 -17.960000 47.501900 -1.143900 8.964920 6.508937 1.049950 68.172582 -6.246110 59.287919 -36.684552 44.175698 -15.143338 0.283266 -0.589172 -7.962322 -28.164990 3.333359 -2.174700 7.125000 0.000000 0.000000 -1.304500 -25.398600 -0.619100 
47.050667 16.759858 -6.293048 6.905213 9.372199 1.964731 4.363602 1.732318 -0.793558 -14.670587 -5.169937 -5.720311 0.319841 7.614979 22.969146 0.998833 -12.357849 10.976561 0.086300 -1.895000 -5.215400 -7.266058 -1.553449 -0.609605 28.708166 16.477465 -18.894729 -10.619357 -18.550310 61.508110 -0.678073 -1.756496 -16.878226 -1.201100 -6.953500 19.577700 1.707349 5.980615 3.357027 -0.381393 8.005318 -2.077956 -3.857878 3.961165 1.541264 1.995889 7.253195 -10.702925 5.483601 8.742860 9.642451 0.709100 4.766300 6.155700 -6.935734 -6.405669 0.106215 -81.839394 31.913776 32.288196 9.062666 -18.372460 -2.095915 -0.644367 -1.453071 -11.886391 8.025682 17.034637 2.831500 -7.125000 0.000000 0.000000 -18.310400 47.610600 -1.218200 8.938448 6.519003 1.053899 68.214196 -6.510273 59.054972 -37.453375 44.679598 -15.680106 0.280008 -0.588551 -8.053561 -28.306805 3.318717 -2.179500 7.125000 0.000000 0.000000 -1.408800 -25.409000 -0.668200 
47.177185 16.767403 -6.326021 6.884185 7.757242 2.257760 4.365302 1.746894 -0.775075 -14.967434 -4.884699 -6.043419 0.372154 7.756741 23.345282 0.997900 -12.781542 10.813654 0.084200 -1.872000 -5.152100 -7.231435 -1.614815 -0.626096 28.996501 15.107475 -19.695189 -10.563257 -18.495134 61.289030 -0.708047 -3.498889 -19.170562 -1.260300 -7.116600 20.061300 1.511654 5.983255 3.345638 -0.396844 8.006406 -2.090620 -3.826592 3.963471 1.495094 1.945137 7.302014 -10.703024 5.523714 8.814481 9.534729 0.749600 4.796600 6.080700 -6.952844 -6.410955 0.120992 -81.521048 31.749336 32.792912 9.371762 -18.764032 -2.193566 -0.629590 -1.470125 -11.658108 7.788250 17.135481 2.768300 -7.125000 0.000000 0.000000 -18.591900 47.695600 -1.278400 8.918208 6.533807 1.055436 68.231680 -6.859272 58.790374 -38.234399 45.179702 -16.238593 0.282492 -0.587970 -8.277634 -28.562656 3.290698 -2.188700 7.125000 0.000000 0.000000 -1.602700 -25.427000 -0.759600 
47.296055 16.772985 -6.358684 6.785268 6.202256 2.515957 4.367253 1.757449 -0.756887 -15.129654 -4.706742 -6.432244 0.441962 7.942679 23.845242 0.999451 -13.294615 10.785014 0.081100 -1.837200 -5.056000 -7.203015 -1.672901 -0.648543 29.481891 13.758973 -20.385965 -10.438776 -18.400799 60.855289 -0.765670 -5.105661 -21.510588 -1.302900 -7.231300 20.402300 1.335632 5.998610 3.365454 -0.406075 8.023391 -2.101351 -3.766759 3.973960 1.444986 1.900688 7.339210 -10.706518 5.577301 8.869169 9.426767 0.795700 4.820100 6.006500 -6.974172 -6.417095 0.141897 -81.029568 31.518280 33.241823 9.725571 -19.223637 -2.312374 -0.618287 -1.485812 -11.367456 7.625960 17.199467 2.723600 -7.125000 0.000000 0.000000 -18.788500 47.754600 -1.321000 8.904841 6.550499 1.054121 68.241236 -7.255471 58.520665 -38.953760 45.631186 -16.765287 0.290353 -0.588165 -8.612228 -28.924677 3.259164 -2.207300 7.125000 0.000000 0.000000 -1.879700 -25.441100 -0.890400 
47.409136 16.777326 -6.390107 6.638697 4.665464 2.738534 4.372056 1.765661 -0.740188 -15.216713 -4.631091 -6.820324 0.526106 8.155087 24.423987 0.998511 -13.848387 10.758145 0.083200 -1.860200 -5.119600 -7.179643 -1.726495 -0.676098 30.089266 12.486503 -20.946087 -10.252126 -18.270451 60.223524 -0.877414 -6.437024 -23.902201 -1.353800 -7.365600 20.803100 1.177320 6.032135 3.407159 -0.414718 8.065094 -2.107590 -3.703592 3.996864 1.407281 1.873343 7.371812 -10.716929 5.638234 8.915084 9.328843 0.842800 4.841200 5.939400 -7.000487 -6.420780 0.168742 -80.381674 31.243584 33.584814 10.131396 -19.758162 -2.457264 -0.611616 -1.501000 -11.088058 7.587105 17.244073 2.717100 -7.125000 0.000000 0.000000 -18.859700 47.810400 -1.353200 8.897834 6.565294 1.050913 68.236913 -7.662275 58.297154 -39.578889 46.019041 -17.232634 0.303650 -0.588342 -9.046190 -29.370315 3.205778 -2.222400 7.125000 0.000000 0.000000 -2.223800 -25.473900 -1.051900 
47.516945 16.780324 -6.419876 6.448186 3.114492 2.930797 4.380918 1.772850 -0.725897 -15.246503 -4.641344 -7.166889 0.620674 8.377590 25.038366 0.992964 -14.408272 10.635698 0.095000 -1.987700 -5.471700 -7.162450 -1.774124 -0.705257 30.778732 11.365579 -21.361810 -10.010409 -18.108320 59.415163 -1.064034 -7.393511 -26.323369 -1.407400 -7.503900 21.217100 1.042685 6.092977 3.464613 -0.425713 8.143491 -2.109537 -3.647586 4.038393 1.388777 1.854728 7.396957 -10.747925 5.710016 8.949563 9.252387 0.897500 4.858700 5.888900 -7.031666 -6.420953 0.200451 -79.586130 30.951563 33.873513 10.604885 -20.384255 -2.635403 -0.615009 -1.516512 -10.995386 7.818162 17.299152 2.803700 -7.125000 0.000000 0.000000 -18.673300 47.909400 -1.385900 8.895225 6.577503 1.044988 68.222989 -8.041415 58.130531 -40.066928 46.320934 -17.605085 0.319710 -0.588460 -9.525765 -29.835660 3.148775 -2.237300 7.125000 0.000000 0.000000 -2.584800 -25.508800 -1.220800 
47.620930 16.781771 -6.448302 6.213918 1.532726 3.100178 4.394056 1.780255 -0.714048 -15.234214 -4.721608 -7.446098 0.720950 8.595445 25.648395 0.982705 -14.959216 10.348218 0.120800 -2.240200 -6.169900 -7.150197 -1.816342 -0.734176 31.512141 10.406127 -21.645189 -9.722872 -17.917732 58.455690 -1.319687 -8.013363 -28.709870 -1.454400 -7.622700 21.573800 0.948770 6.178955 3.530898 -0.441644 8.256950 -2.107579 -3.622583 4.098020 1.398667 1.854388 7.410741 -10.817386 5.784410 8.966315 9.205449 0.954900 4.869500 5.865400 -7.067514 -6.416507 0.236264 -78.653000 30.653373 34.116008 11.147921 -21.099448 -2.850666 -0.630598 -1.533161 -11.142814 8.368035 17.388201 3.005800 -7.125000 0.000000 0.000000 -18.188600 48.081800 -1.427100 8.896110 6.586575 1.035882 68.200908 -8.360625 58.043611 -40.407919 46.535152 -17.869684 0.336333 -0.588347 -9.994990 -30.265259 3.087763 -2.246100 7.125000 0.000000 0.000000 -2.919700 -25.549800 -1.376600 
47.721607 16.781667 -6.476417 5.944594 -0.083970 3.276571 4.410198 1.787129 -0.704439 -15.189449 -4.865736 -7.666902 0.820796 8.797888 26.219855 0.969529 -15.497603 9.888303 0.160600 -2.582200 -7.117600 -7.142361 -1.852716 -0.757660 32.247900 9.642121 -21.833891 -9.399985 -17.704294 57.375628 -1.633894 -8.306535 -30.985920 -1.498400 -7.732100 21.903200 0.896505 6.280575 3.584497 -0.462526 8.392215 -2.106043 -3.627891 4.168848 1.426177 1.847956 7.411722 -10.909793 5.863668 8.967162 9.185525 1.021900 4.873400 5.861300 -7.107555 -6.408660 0.274177 -77.627302 30.367731 34.292998 11.752463 -21.886686 -3.102599 -0.657768 -1.550832 -11.516089 9.216975 17.516324 3.320700 -7.125000 0.000000 0.000000 -17.422900 48.330700 -1.473100 8.897719 6.592770 1.024216 68.154694 -8.604612 58.063231 -40.600998 46.662785 -18.020831 0.350335 -0.587730 -10.385560 -30.590649 3.035308 -2.248700 7.125000 0.000000 0.000000 -3.174600 -25.588100 -1.494300 
47.820631 16.780324 -6.503912 5.638621 -1.743669 3.472973 4.427551 1.793827 -0.696404 -15.122200 -5.054217 -7.819893 0.915140 8.974976 26.723956 0.955786 -16.013339 9.246838 0.213400 -2.974100 -8.206700 -7.138122 -1.884091 -0.774500 32.960167 9.060100 -21.945463 -9.052870 -17.471697 56.206579 -1.965732 -8.393999 -33.028760 -1.518800 -7.782200 22.054400 0.901491 6.394757 3.613722 -0.487449 8.544803 -2.106666 -3.670672 4.249080 1.467820 1.845847 7.399284 -11.015425 5.928291 8.950290 9.195101 1.083100 4.868600 5.878800 -7.148023 -6.397548 0.313243 -76.540138 30.109110 34.415508 12.408523 -22.729177 -3.389812 -0.695581 -1.569167 -12.091525 10.344521 17.675074 3.744500 -7.125000 0.000000 0.000000 -16.387800 48.647100 -1.511600 8.901762 6.595020 1.010295 68.071605 -8.771685 58.197158 -40.662838 46.714382 -18.067967 0.361101 -0.585465 -10.651313 -30.769399 2.955776 -2.219100 7.125000 0.000000 0.000000 -3.320000 -25.669400 -1.556700 
47.919034 16.777533 -6.530063 5.306714 -3.457868 3.707764 4.444608 1.800121 -0.689494 -15.051603 -5.271974 -7.902263 0.998226 9.118096 27.134017 0.944557 -16.488414 8.446646 0.272400 -3.357200 -9.274800 -7.136425 -1.910382 -0.782712 33.615688 8.660113 -22.004238 -8.695306 -17.227176 54.991262 -2.277855 -8.366466 -34.749358 -1.522000 -7.789900 22.077900 0.954617 6.520505 3.595317 -0.516914 8.713254 -2.110845 -3.742704 4.337534 1.523173 1.824842 7.370222 -11.118550 5.985976 8.914988 9.226046 1.147200 4.853800 5.904800 -7.190309 -6.382372 0.352993 -75.414187 29.885830 34.500755 13.099486 -23.603463 -3.707442 -0.743683 -1.586878 -12.797062 11.730904 17.848819 4.272200 -7.125000 0.000000 0.000000 -15.091500 49.014400 -1.525700 8.906127 6.591438 0.994963 67.941644 -8.867158 58.457627 -40.620381 46.706376 -18.030093 0.367844 -0.581596 -10.787952 -30.801507 2.860466 -2.163900 7.125000 0.000000 0.000000 -3.354500 -25.780900 -1.564200 
